<svg width="25" height="24" viewBox="0 0 25 24" fill="currentColor"
  xmlns="http://www.w3.org/2000/svg">
  <g id="Wallet">
    <path id="Vector"
      d="M21.3784 18V19C21.3784 19.5304 21.1677 20.0391 20.7926 20.4142C20.4176 20.7893 19.9089 21 19.3784 21H5.37842C4.84799 21 4.33928 20.7893 3.9642 20.4142C3.58913 20.0391 3.37842 19.5304 3.37842 19V5C3.37842 4.46957 3.58913 3.96086 3.9642 3.58579C4.33928 3.21071 4.84799 3 5.37842 3H19.3784C19.9089 3 20.4176 3.21071 20.7926 3.58579C21.1677 3.96086 21.3784 4.46957 21.3784 5V6H12.3784C11.848 6 11.3393 6.21071 10.9642 6.58579C10.5891 6.96086 10.3784 7.46957 10.3784 8V16C10.3784 16.5304 10.5891 17.0391 10.9642 17.4142C11.3393 17.7893 11.848 18 12.3784 18M12.3784 16H22.3784V8H12.3784M16.3784 13.5C15.9806 13.5 15.5991 13.342 15.3178 13.0607C15.0365 12.7794 14.8784 12.3978 14.8784 12C14.8784 11.6022 15.0365 11.2206 15.3178 10.9393C15.5991 10.658 15.9806 10.5 16.3784 10.5C16.7762 10.5 17.1578 10.658 17.4391 10.9393C17.7204 11.2206 17.8784 11.6022 17.8784 12C17.8784 12.3978 17.7204 12.7794 17.4391 13.0607C17.1578 13.342 16.7762 13.5 16.3784 13.5Z"
      fill="currentColor" />
  </g>
</svg>